<?xml version="1.0" standalone="no"?>
<!DOCTYPE svg PUBLIC "-//W3C//DTD SVG 20010904//EN"
 "http://www.w3.org/TR/2001/REC-SVG-20010904/DTD/svg10.dtd">
<svg version="1.0" xmlns="http://www.w3.org/2000/svg"
 width="404.000000pt" height="316.000000pt" viewBox="0 0 404.000000 316.000000"
 preserveAspectRatio="xMidYMid meet">

<g transform="translate(0.000000,316.000000) scale(0.100000,-0.100000)"
fill="#000000" stroke="none">
<path d="M0 1580 l0 -1580 2020 0 2020 0 0 1580 0 1580 -2020 0 -2020 0 0
-1580z m2484 1196 c99 -49 164 -147 174 -263 l5 -63 -77 0 -76 0 0 28 c0 54
-20 100 -60 135 -66 60 -151 62 -217 4 -60 -53 -63 -68 -63 -347 0 -137 -3
-250 -7 -250 -4 0 -38 30 -75 67 l-68 67 0 196 c0 107 5 212 10 232 14 49 66
125 112 161 90 72 233 86 342 33z m176 -1080 l0 -524 -31 -26 c-35 -29 -58
-32 -97 -12 -15 8 -211 200 -437 425 l-410 411 -5 -422 -5 -423 -72 -3 -73 -3
0 525 0 525 26 20 c39 31 86 27 131 -11 21 -17 215 -207 431 -422 l392 -391 0
428 0 427 75 0 75 0 0 -524z m-492 -716 c-3 -201 -3 -206 -31 -262 -35 -70
-111 -141 -176 -163 -26 -8 -80 -16 -120 -16 -93 -1 -160 30 -230 106 -57 63
-84 131 -79 202 l3 48 70 0 70 0 7 -54 c11 -92 74 -151 160 -151 66 0 114 24
146 73 l27 40 3 265 3 265 75 -74 75 -74 -3 -205z"/>
</g>
</svg>
